<?xml version="1.0" standalone="no"?>
<!DOCTYPE svg PUBLIC "-//W3C//DTD SVG 20010904//EN"
 "http://www.w3.org/TR/2001/REC-SVG-20010904/DTD/svg10.dtd">
<svg version="1.0" xmlns="http://www.w3.org/2000/svg"
 width="428.000000pt" height="330.000000pt" viewBox="0 0 428.000000 330.000000"
 preserveAspectRatio="xMidYMid meet">

<g transform="translate(0.000000,330.000000) scale(0.100000,-0.100000)"
fill="#000000" stroke="none">
<path d="M2234 3270 c-12 -5 -25 -13 -29 -19 -4 -8 -278 -11 -908 -11 -496 0
-930 -4 -964 -9 -129 -19 -225 -87 -280 -199 l-28 -57 -3 -1289 c-2 -839 1
-1308 8 -1344 14 -76 46 -136 102 -188 84 -78 188 -109 330 -97 58 5 72 10 85
30 14 21 14 25 0 47 -15 22 -25 25 -124 31 -59 3 -123 11 -142 17 -48 15 -124
94 -139 144 -18 60 -17 2578 0 2638 7 24 32 60 58 87 80 83 27 79 1068 79 899
0 914 0 939 -20 31 -24 90 -26 120 -5 12 8 27 31 33 49 15 46 -8 92 -55 112
-39 16 -42 16 -71 4z"/>
<path d="M3130 3228 c-29 -15 -39 -68 -18 -86 9 -7 130 -12 373 -14 350 -3
361 -4 401 -25 53 -28 107 -91 122 -142 8 -26 12 -156 12 -405 l0 -366 -432 0
c-481 0 -522 -4 -638 -62 -78 -40 -183 -141 -223 -216 -115 -214 -79 -463 92
-632 36 -36 93 -80 127 -98 113 -59 142 -62 632 -62 l442 0 0 -382 c0 -382 0
-383 -24 -433 -13 -27 -36 -62 -52 -77 -66 -61 4 -58 -1231 -58 -976 1 -1131
3 -1147 15 -30 23 -90 19 -122 -8 -21 -18 -27 -32 -27 -65 0 -47 18 -73 63
-92 25 -10 36 -9 72 8 42 20 66 21 1173 27 1099 7 1131 8 1184 28 59 21 130
81 167 138 50 80 54 114 54 521 l0 378 54 0 c91 0 86 -31 86 537 0 480 -1 494
-20 513 -15 15 -33 20 -70 20 l-50 0 0 368 c0 411 -4 439 -65 528 -41 59 -88
95 -166 127 -51 20 -72 22 -399 24 -269 3 -351 1 -370 -9z m1030 -1573 l0
-425 -239 0 -240 0 -3 218 c-3 234 -6 244 -59 276 -22 13 -57 16 -173 16 -87
0 -146 4 -146 10 0 21 -68 85 -115 106 -152 71 -319 -34 -319 -201 0 -177 186
-284 341 -195 59 34 79 59 98 122 l12 43 127 3 126 3 0 -201 0 -201 -242 3
-243 3 -66 31 c-75 36 -166 119 -198 182 -88 172 -57 375 77 507 51 51 144
101 212 114 25 5 271 9 548 10 l502 1 0 -425z m-1004 99 c58 -38 71 -122 28
-173 -36 -43 -89 -58 -137 -38 -40 17 -77 68 -77 105 0 37 27 86 58 104 35 22
96 23 128 2z"/>
</g>
</svg>
